<svg width="403" height="414" viewBox="0 0 403 414" fill="none" xmlns="http://www.w3.org/2000/svg">
<path d="M89.1069 48.9837L62.8498 87.0488C48.2936 108.151 42.3976 134.038 46.3794 159.362L54.531 211.207C57.0703 227.357 53.1576 243.857 43.6374 257.148C20.9496 288.82 32.5845 333.313 67.8725 349.825L152.493 389.42C184.979 404.621 223.126 401.28 252.382 380.532C293.294 351.518 336.896 320.309 338.554 318.066C340.129 315.934 362.102 275.611 383.636 235.883C401.666 202.617 399.291 162.024 377.579 131.036L325.042 56.0569C308.474 32.4117 282.495 17.0812 253.787 14.0087L182.065 6.3326C145.602 2.4302 109.929 18.798 89.1069 48.9837Z" fill="#3B7520"/>
<path d="M114.108 101.13L106.047 111.731C90.7746 131.816 83.6591 156.93 86.1269 182.04L89.3384 214.718C90.5773 227.325 86.888 239.923 79.0437 249.87C60.254 273.696 67.4028 308.696 94.0305 323.246L144.751 350.96C176.051 368.064 214.198 366.809 244.191 347.504C272.998 328.963 300.328 311.167 301.535 309.682C302.672 308.283 317.105 284.594 332.901 258.509C352.189 226.659 352.072 186.717 332.7 154.92L308.016 114.406C292.87 89.5451 267.642 72.5189 238.92 67.773L210.011 62.9962C173.447 56.9546 136.54 71.6298 114.108 101.13Z" fill="#E3AFA4"/>
</svg>
