<svg width="414" height="332" viewBox="0 0 414 332" fill="none" xmlns="http://www.w3.org/2000/svg">
<path d="M270.337 136.18C295.172 137.266 310.271 141.741 319.297 148.295L424.903 207.06C425.6 207.448 426.25 207.915 426.841 208.451C430.569 211.841 431.329 217.416 428.644 221.68L417.299 239.699C416.627 240.766 415.814 241.737 414.881 242.585C411.211 245.921 406.045 247.054 401.316 245.561L340.337 226.304C339.646 226.086 338.927 225.975 338.203 225.975C334.075 225.975 330.821 229.489 331.191 233.6C332.456 247.631 334.342 263.856 336.202 278.636C336.711 282.679 337.3 286.422 337.915 289.887C341.53 310.26 328.651 323.114 307.975 322.331L170.805 317.138C166.251 316.965 162.652 313.241 162.664 308.684C162.671 305.771 162.679 302.19 162.687 298.128C162.705 289.245 150.188 287.986 148.439 296.695C148.142 298.174 147.4 299.526 146.311 300.57L145.065 301.764C141.899 304.798 137.406 306.012 133.143 304.985L100.264 297.065C96.4898 296.156 93.2942 293.656 91.503 290.212C90.5088 288.3 89.9868 286.195 90.1396 284.046C90.988 272.109 96.6418 229.405 134.318 190.312C143.757 180.519 151.654 173.113 158.239 167.522C174.566 153.657 200.623 141.011 221.766 137.575C235.343 135.368 251.326 135.348 270.337 136.18Z" fill="#617900" stroke="black" stroke-width="10" stroke-linecap="round"/>
<path d="M318.577 132.949L329.777 107.797C333.656 99.0873 336.19 89.8389 337.294 80.3682L338.445 70.4826C339.225 63.7881 338.575 56.9893 336.545 50.5623C333.364 40.4878 326.915 31.733 318.229 25.7193L315.86 24.0793C306.569 17.6467 295.032 15.338 283.981 17.6994C270.456 20.5894 259.302 30.1083 254.322 43.0108L249.979 54.2634C248.423 58.2952 247.284 62.4759 246.58 66.7399L243.308 86.569C242.419 91.9516 241.973 97.398 241.973 102.853V143.335C241.973 145.098 242.122 146.858 242.42 148.595C247.036 175.564 281.673 183.93 298.089 162.041L313.761 141.145C315.668 138.602 317.284 135.853 318.577 132.949Z" fill="#FAD6A0" stroke="black" stroke-width="10" stroke-linecap="round"/>
<path d="M293.634 155.983V155.983C287.033 155.983 280.496 154.682 274.399 152.153L269.97 150.317" stroke="black" stroke-width="10" stroke-linecap="round"/>
<path d="M306.632 124.32V124.32C309.004 128.47 313.825 130.563 318.476 129.461L323.297 128.319" stroke="black" stroke-width="10" stroke-linecap="round"/>
<path d="M289.968 121.653L288.418 122.656C285.757 124.378 282.58 125.123 279.43 124.763V124.763C275.153 124.274 271.355 121.801 269.178 118.087L266.97 114.321" stroke="black" stroke-width="10" stroke-linecap="round"/>
<path d="M305.415 85.8083L315.298 91.3489C316.828 92.2064 318.552 92.6567 320.306 92.6567C326.712 92.6567 331.546 98.4736 330.373 104.772L328.315 115.821C327.234 121.621 331.397 127.087 337.276 127.587C340.243 127.84 343.168 126.753 345.251 124.625L354.441 115.236C356.337 113.298 358.02 111.163 359.459 108.866L360.669 106.937C367.554 95.9532 370.583 82.9887 369.277 70.0916C368.844 65.817 367.94 61.6032 366.581 57.5272L365.04 52.9046C360.65 39.7346 352.288 28.248 341.104 20.0242C337.463 17.3473 333.562 15.0446 329.459 13.151L327.281 12.1456C315.696 6.79871 302.966 4.40813 290.231 5.18784C281.454 5.72518 272.834 7.75867 264.743 11.2005L240.487 21.5182C235.093 23.8125 230.238 27.2079 226.232 31.4869C220.628 37.4734 216.894 44.9665 215.489 53.0458L214.405 59.2759C213.04 67.1268 214.071 75.2069 217.364 82.4634L225.725 100.888C228.411 106.81 234.812 110.112 241.194 108.871C241.934 108.727 242.662 108.524 243.369 108.263L246.073 107.267C251.953 105.101 257.37 101.845 262.041 97.6688L271.098 89.5725C274.946 86.1332 279.623 83.7557 284.669 82.6744C291.735 81.1601 299.111 82.2744 305.415 85.8083Z" fill="#2C1305" stroke="black" stroke-width="10" stroke-linecap="round"/>
<path d="M313.965 109.655L303.171 133.491C300.135 140.197 292.83 143.874 285.635 142.318V142.318" stroke="black" stroke-width="10" stroke-linecap="round"/>
<path d="M263.376 187.313L298.633 197.249L239.307 324.297L203.644 309.966C203.644 309.966 194.978 263.638 213.643 228.308C232.308 192.979 263.376 187.313 263.376 187.313Z" fill="#2C1305" stroke="black" stroke-width="10" stroke-linecap="round"/>
<path d="M401.376 275.39L400.144 298.278C399.8 304.659 398.062 310.887 395.052 316.524C386.722 332.124 369.815 341.171 352.215 339.446L256.164 330.034C241.425 328.589 229.144 318.122 225.382 303.798C223.805 297.794 223.835 291.482 225.468 285.494L233.893 254.602C236.595 244.693 240.887 235.288 246.599 226.752L259.768 207.076C263.983 200.778 270.327 196.21 277.636 194.209C288.017 191.366 299.13 194.018 307.11 201.24L318.823 211.843C327.849 220.013 339.84 224.11 351.978 223.17C371.381 221.668 389.492 233.001 396.625 251.107L398.008 254.619C400.609 261.221 401.758 268.305 401.376 275.39Z" fill="#CE7C00" stroke="black" stroke-width="10" stroke-linecap="round"/>
<path d="M316.66 263.745L104.499 140.306C102.652 139.231 101.198 137.593 100.349 135.632L97.6909 129.484C96.8043 127.434 95.2568 125.739 93.2951 124.671L30.6135 90.5344C27.363 88.7641 23.4004 88.9342 20.3134 90.9763L7.5014 99.452C5.0672 101.062 3.45798 103.656 3.09598 106.552L0.857086 124.463C0.341309 128.589 2.4328 132.604 6.10977 134.546L74.7999 170.824C76.2391 171.584 77.8422 171.981 79.4699 171.981H90.6404C92.3977 171.981 94.124 172.444 95.6453 173.324L306.626 295.292C313.293 299.146 321.631 294.335 321.631 286.635V272.388C321.631 268.828 319.737 265.536 316.66 263.745Z" fill="#4B1605" stroke="black" stroke-width="10" stroke-linecap="round"/>
<path d="M54.3274 165.315L49.6612 174.314" stroke="#C6C6C6" stroke-width="10" stroke-linecap="round"/>
<path d="M54.3274 165.315L49.6612 174.314" stroke="#C6C6C6" stroke-width="10" stroke-linecap="round"/>
<path d="M16.6649 145.318L11.9988 154.317" stroke="#C6C6C6" stroke-width="10" stroke-linecap="round"/>
<path d="M81.991 100.656L77.3248 109.655" stroke="#C6C6C6" stroke-width="10" stroke-linecap="round"/>
<path d="M63.9929 89.9904L59.3268 98.9894" stroke="#C6C6C6" stroke-width="10" stroke-linecap="round"/>
<path d="M45.3284 81.3247L40.6622 90.3237" stroke="#C6C6C6" stroke-width="10" stroke-linecap="round"/>
<path d="M34.6628 155.316L29.9967 164.315" stroke="#C6C6C6" stroke-width="10" stroke-linecap="round"/>
<path d="M103.401 278.124L93.4764 288.553C90.1246 292.075 87.9472 296.601 87.2596 301.414C86.4478 307.096 87.7708 312.933 90.9854 317.688C97.3301 327.072 109.54 330.478 119.826 325.73L125.528 323.098C132.667 319.804 138.258 313.881 141.135 306.565L152.381 277.974C154.912 271.54 159.764 266.29 165.979 263.263C168.193 262.184 170.252 260.815 172.102 259.19L175.866 255.885C180.557 251.766 186.055 248.672 192.01 246.799L198.987 244.605C201.295 243.879 203.393 242.607 205.104 240.896L210.438 235.562C213.008 232.992 213.155 228.872 210.774 226.125L207.414 222.249C206.801 221.542 205.736 221.457 205.019 222.058L196.896 228.869C196.301 229.368 195.495 228.583 195.978 227.975L202.994 219.843C204.977 217.545 205.276 214.24 203.739 211.623C200.971 206.91 194.135 206.971 191.452 211.733L190.132 214.076C190.044 214.231 189.936 214.373 189.81 214.499L187.892 216.414C186.467 217.838 184.205 215.992 185.313 214.31L190.14 206.918C192.926 202.652 190.496 196.923 185.493 195.961C182.502 195.385 179.475 196.762 177.943 199.395L172.473 208.798C172.153 209.347 171.665 209.778 171.08 210.026C168.312 211.2 165.775 207.952 167.585 205.551L168 205L170.5 201L171.206 199.558C171.716 198.519 171.981 197.376 171.981 196.219V195.573C171.981 193.719 171.153 191.962 169.725 190.78C168.61 189.859 167.209 189.354 165.762 189.354H164.89C164.298 189.354 163.708 189.415 163.128 189.536L162.844 189.595C160.049 190.177 157.572 191.782 155.899 194.095L147.335 205.933C145.549 208.401 143.997 211.031 142.697 213.787L133.652 232.974L111.56 267.689C109.184 271.423 106.452 274.918 103.401 278.124Z" fill="#FAD6A0" stroke="black" stroke-width="10" stroke-linecap="round"/>
<path d="M460.71 259.891L462.215 255.868C466.342 244.832 462.24 232.411 452.353 226.002L443.242 220.097C437.589 216.433 430.08 217.649 425.872 222.909C425.482 223.397 425.127 223.913 424.81 224.452L417.894 236.208C416.168 239.143 413.971 241.774 411.392 243.998C407.601 247.266 403.077 249.571 398.205 250.718L375.188 256.133C372.816 256.691 370.488 257.422 368.222 258.32L359.591 261.74C355.851 263.222 351.946 264.247 347.96 264.793L335.5 266.5L324.293 268.492C318.807 269.468 315.962 275.601 318.759 280.419C320.652 283.678 324.557 285.18 328.146 284.03L333.536 282.302C336.717 281.108 339.016 285.402 336.26 287.388L326.353 294.525C325.48 295.155 324.858 296.074 324.6 297.119L324.33 298.21C323.145 303.001 326.771 307.633 331.707 307.633H336.547C338.565 307.633 340.547 308.169 342.289 309.186L344.764 310.631C350.572 314.022 357.613 314.567 363.874 312.111L369.16 310.038C373.209 308.449 376.913 306.092 380.066 303.097L389.201 294.419C397.456 286.577 408.14 281.787 419.486 280.841L434.714 279.572C446.458 278.594 456.582 270.928 460.71 259.891Z" fill="#FAD6A0" stroke="black" stroke-width="10" stroke-linecap="round"/>
</svg>
